# Blender v2.92.0 OBJ File: ''
# www.blender.org
mtllib clearing_ritual_main_block_lower.mtl
o Cylinder
v -0.975252 0.212190 2.215156
v 2.553116 0.078351 0.334761
v -0.321774 0.129145 1.329540
v 1.442235 0.062232 0.389436
v 0.066346 -0.280453 2.020024
v 1.830355 -0.347366 1.079920
v 0.026655 0.587106 1.898221
v 1.790664 0.520193 0.958117
vt 0.750000 0.250000
vt 0.750000 0.490000
vt 0.957846 0.130000
vt 0.250000 0.250000
vt 0.457846 0.130000
vt 0.250000 0.490000
vt 1.000000 0.500000
vt 1.000000 1.000000
vt 0.666667 1.000000
vt 0.666667 0.500000
vt 0.542154 0.130000
vt 0.042154 0.130000
vt 0.333333 1.000000
vt 0.333333 0.500000
vt -0.000000 1.000000
vt -0.000000 0.500000
vn -0.4520 -0.8553 -0.2533
vn -0.0123 -0.8630 -0.5050
vn -0.2420 -0.8881 -0.3908
vn 0.2484 0.1458 0.9576
vn 0.6724 0.1330 0.7282
vn 0.4697 0.1438 0.8711
vn -0.4287 0.8137 -0.3926
vn -0.0415 0.7905 -0.6111
vn -0.2427 0.8228 -0.5139
usemtl Material.001
s off
f 1/1/1 3/2/1 5/3/1
f 2/4/2 6/5/2 4/6/2
f 3/7/3 4/8/3 6/9/3 5/10/3
f 1/1/4 5/3/4 7/11/4
f 2/4/5 8/12/5 6/5/5
f 5/10/6 6/9/6 8/13/6 7/14/6
f 1/1/7 7/11/7 3/2/7
f 2/4/8 4/6/8 8/12/8
f 7/14/9 8/13/9 4/15/9 3/16/9
o Cylinder.001
v -0.747926 0.246146 -2.518187
v 2.325959 -0.072871 0.022018
v 0.317400 0.128884 -2.254415
v 1.854190 -0.030608 -0.984439
v -0.182589 -0.300537 -1.653761
v 1.354201 -0.460030 -0.383785
v -0.067638 0.567909 -1.694474
v 1.469152 0.408416 -0.424498
vt 0.750000 0.250000
vt 0.750000 0.490000
vt 0.957846 0.130000
vt 0.250000 0.250000
vt 0.457846 0.130000
vt 0.250000 0.490000
vt 1.000000 0.500000
vt 1.000000 1.000000
vt 0.666667 1.000000
vt 0.666667 0.500000
vt 0.542154 0.130000
vt 0.042154 0.130000
vt 0.333333 1.000000
vt 0.333333 0.500000
vt -0.000000 1.000000
vt -0.000000 0.500000
vn 0.0461 -0.8304 -0.5553
vn 0.4454 -0.8612 -0.2449
vn 0.2522 -0.8742 -0.4150
vn -0.7890 0.1326 0.5999
vn -0.4163 0.0975 0.9040
vn -0.6251 0.1189 0.7714
vn 0.2171 0.8351 -0.5055
vn 0.5654 0.7916 -0.2318
vn 0.4000 0.8344 -0.3792
usemtl Material.001
s off
f 9/17/10 11/18/10 13/19/10
f 10/20/11 14/21/11 12/22/11
f 11/23/12 12/24/12 14/25/12 13/26/12
f 9/17/13 13/19/13 15/27/13
f 10/20/14 16/28/14 14/21/14
f 13/26/15 14/25/15 16/29/15 15/30/15
f 9/17/16 15/27/16 11/18/16
f 10/20/17 12/22/17 16/28/17
f 15/30/18 16/29/18 12/31/18 11/32/18
o Cylinder.002
v -1.978142 -0.098128 2.143492
v -1.003102 0.271424 -1.718621
v -2.150424 0.213368 1.098727
v -1.662952 0.398126 -0.832138
v -1.704097 -0.558597 1.104950
v -1.216625 -0.373839 -0.825914
v -1.360823 0.230459 1.274138
v -0.873352 0.415217 -0.656726
vt 0.750000 0.250000
vt 0.750000 0.490000
vt 0.957846 0.130000
vt 0.250000 0.250000
vt 0.457846 0.130000
vt 0.250000 0.490000
vt 1.000000 0.500000
vt 1.000000 1.000000
vt 0.666667 1.000000
vt 0.666667 0.500000
vt 0.542154 0.130000
vt 0.042154 0.130000
vt 0.333333 1.000000
vt 0.333333 0.500000
vt -0.000000 1.000000
vt -0.000000 0.500000
vn -0.8657 -0.5006 -0.0065
vn -0.7501 -0.4377 -0.4958
vn -0.8356 -0.4852 -0.2574
vn 0.8032 -0.4364 0.4054
vn 0.9200 -0.3874 -0.0600
vn 0.8865 -0.4249 0.1831
vn -0.0867 0.9507 0.2978
vn 0.0086 0.9908 -0.1352
vn -0.0404 0.9956 0.0851
usemtl Material.001
s off
f 17/33/19 19/34/19 21/35/19
f 18/36/20 22/37/20 20/38/20
f 19/39/21 20/40/21 22/41/21 21/42/21
f 17/33/22 21/35/22 23/43/22
f 18/36/23 24/44/23 22/37/23
f 21/42/24 22/41/24 24/45/24 23/46/24
f 17/33/25 23/43/25 19/34/25
f 18/36/26 20/38/26 24/44/26
f 23/46/27 24/45/27 20/47/27 19/48/27
o Cylinder.003
v 0.000000 0.000000 0.000000
v 0.000000 3.008456 0.000000
v -0.290464 0.000000 -1.101467
v 0.356746 2.015398 -0.293253
v 1.337549 0.000000 -0.327844
v 0.374126 1.934313 0.294996
v 0.666372 0.000000 0.626298
v -0.227180 1.988985 0.365821
v -0.354646 0.000000 1.194675
v -0.457881 2.039670 0.133925
v -1.153082 0.000000 0.027792
v -0.176481 1.884725 -0.452188
vt 0.750000 0.250000
vt 0.750000 0.490000
vt 0.978254 0.324164
vt 0.250000 0.250000
vt 0.478254 0.324164
vt 0.250000 0.490000
vt 1.000000 0.500000
vt 1.000000 1.000000
vt 0.800000 1.000000
vt 0.800000 0.500000
vt 0.891068 0.055836
vt 0.391068 0.055836
vt 0.600000 1.000000
vt 0.600000 0.500000
vt 0.608932 0.055836
vt 0.108932 0.055836
vt 0.400000 1.000000
vt 0.400000 0.500000
vt 0.521746 0.324164
vt 0.021746 0.324164
vt 0.200000 1.000000
vt 0.200000 0.500000
vt 0.000000 1.000000
vt 0.000000 0.500000
vn 0.0000 -1.0000 0.0000
vn 0.9426 0.3333 0.0181
vn 0.6149 0.3117 -0.7244
vn 0.1388 0.3069 0.9416
vn 0.6174 0.2225 0.7546
vn -0.6111 0.3845 0.6919
vn 0.2559 0.3578 0.8980
vn -0.8180 0.3206 -0.4775
vn -0.9215 0.3013 0.2451
vn 0.1910 0.3405 -0.9207
vn -0.5633 0.2994 -0.7701
usemtl Material.001
s off
f 25/49/28 27/50/28 29/51/28
f 26/52/29 30/53/29 28/54/29
f 27/55/30 28/56/30 30/57/30 29/58/30
f 25/49/28 29/51/28 31/59/28
f 26/52/31 32/60/31 30/53/31
f 29/58/32 30/57/32 32/61/32 31/62/32
f 25/49/28 31/59/28 33/63/28
f 26/52/33 34/64/33 32/60/33
f 31/62/34 32/61/34 34/65/34 33/66/34
f 25/49/28 33/63/28 35/67/28
f 26/52/35 36/68/35 34/64/35
f 33/66/36 34/65/36 36/69/36 35/70/36
f 25/49/28 35/67/28 27/50/28
f 26/52/37 28/54/37 36/68/37
f 35/70/38 36/69/38 28/71/38 27/72/38
