# Blender v2.92.0 OBJ File: ''
# www.blender.org
mtllib rip_ray_generator.mtl
o Torus.001
v 1.471078 0.000000 0.000000
v 1.175873 0.195458 0.000000
v 0.964370 0.243732 0.000000
v 0.794758 0.108471 0.000000
v 0.794758 -0.108471 0.000000
v 0.964370 -0.243732 0.000000
v 1.241506 -0.798282 0.000000
v 0.898026 0.000000 -0.898026
v 0.831467 0.195458 -0.831468
v 0.681912 0.243732 -0.681913
v 0.561979 0.108471 -0.561979
v 0.561979 -0.108471 -0.561979
v 0.681912 -0.243732 -0.681913
v 0.831467 -0.195458 -0.831468
v 0.000000 0.000000 -1.425500
v 0.000000 0.195458 -1.175873
v 0.000000 0.243732 -0.964370
v 0.000000 0.108471 -0.794758
v 0.000000 -0.108471 -0.794758
v 0.000000 -0.243732 -0.964370
v 0.000000 -0.815109 -1.297784
v -0.898026 0.000000 -0.898025
v -0.831468 0.195458 -0.831467
v -0.681913 0.243732 -0.681912
v -0.561979 0.108471 -0.561979
v -0.561979 -0.108471 -0.561979
v -0.681913 -0.243732 -0.681912
v -0.831468 -0.195458 -0.831467
v -1.471078 0.000000 0.000000
v -1.175873 0.195458 -0.000000
v -0.964370 0.243732 -0.000000
v -0.794758 0.108471 -0.000000
v -0.794758 -0.108471 -0.000000
v -0.964370 -0.243732 -0.000000
v -1.241506 -0.798282 0.000000
v -0.898026 0.000000 0.898025
v -0.831468 0.195458 0.831467
v -0.681913 0.243732 0.681912
v -0.561979 0.108471 0.561979
v -0.561979 -0.108471 0.561979
v -0.681913 -0.243732 0.681912
v -0.831468 -0.195458 0.831467
v 0.000000 0.000000 1.425500
v 0.000000 0.195458 1.175873
v 0.000000 0.243732 0.964370
v 0.000000 0.108471 0.794758
v 0.000000 -0.108471 0.794758
v 0.000000 -0.243732 0.964370
v 0.000000 -0.815109 1.297784
v 0.898025 0.000000 0.898026
v 0.831467 0.195458 0.831468
v 0.681912 0.243732 0.681913
v 0.561978 0.108471 0.561979
v 0.561978 -0.108471 0.561979
v 0.681912 -0.243732 0.681913
v 0.831467 -0.195458 0.831468
vt 0.500000 0.571429
vt 0.625000 0.571429
vt 0.625000 0.714286
vt 0.500000 0.714286
vt 0.625000 0.857143
vt 0.500000 0.857143
vt 0.625000 1.000000
vt 0.500000 1.000000
vt 0.500000 -0.000000
vt 0.625000 -0.000000
vt 0.625000 0.142857
vt 0.500000 0.142857
vt 0.625000 0.285714
vt 0.500000 0.285714
vt 0.625000 0.428571
vt 0.500000 0.428571
vt 0.750000 0.571429
vt 0.750000 0.714286
vt 0.750000 0.857143
vt 0.750000 1.000000
vt 0.750000 -0.000000
vt 0.750000 0.142857
vt 0.750000 0.285714
vt 0.750000 0.428571
vt 0.875000 0.571429
vt 0.875000 0.714286
vt 0.875000 0.857143
vt 0.875000 1.000000
vt 0.875000 -0.000000
vt 0.875000 0.142857
vt 0.875000 0.285714
vt 0.875000 0.428571
vt 1.000000 0.571429
vt 1.000000 0.714286
vt 1.000000 0.857143
vt 1.000000 1.000000
vt 1.000000 -0.000000
vt 1.000000 0.142857
vt 1.000000 0.285714
vt 1.000000 0.428571
vt 0.000000 0.571429
vt 0.125000 0.571429
vt 0.125000 0.714286
vt 0.000000 0.714286
vt 0.125000 0.857143
vt 0.000000 0.857143
vt 0.125000 1.000000
vt 0.000000 1.000000
vt 0.000000 -0.000000
vt 0.125000 -0.000000
vt 0.125000 0.142857
vt 0.000000 0.142857
vt 0.125000 0.285714
vt 0.000000 0.285714
vt 0.125000 0.428571
vt 0.000000 0.428571
vt 0.250000 0.571429
vt 0.250000 0.714286
vt 0.250000 0.857143
vt 0.250000 1.000000
vt 0.250000 -0.000000
vt 0.250000 0.142857
vt 0.250000 0.285714
vt 0.250000 0.428571
vt 0.375000 0.571429
vt 0.375000 0.714286
vt 0.375000 0.857143
vt 0.375000 1.000000
vt 0.375000 -0.000000
vt 0.375000 0.142857
vt 0.375000 0.285714
vt 0.375000 0.428571
vn 0.6575 0.6679 -0.3488
vn 0.2216 0.9708 -0.0918
vn -0.6037 0.7570 0.2501
vn -0.9239 0.0000 0.3827
vn -0.6037 -0.7570 0.2501
vn -0.7501 -0.6563 0.0818
vn 0.7925 -0.2727 -0.5455
vn 0.3517 0.6242 -0.6977
vn 0.0918 0.9708 -0.2216
vn -0.2501 0.7570 0.6037
vn -0.3827 0.0000 0.9239
vn -0.2501 -0.7570 0.6037
vn -0.0754 -0.6880 0.7218
vn 0.5399 -0.1931 -0.8193
vn -0.3517 0.6242 -0.6977
vn -0.0918 0.9708 -0.2216
vn 0.2501 0.7570 0.6037
vn 0.3827 0.0000 0.9239
vn 0.2501 -0.7570 0.6037
vn 0.0754 -0.6880 0.7218
vn -0.5399 -0.1931 -0.8193
vn -0.6575 0.6679 -0.3488
vn -0.2216 0.9708 -0.0918
vn 0.6037 0.7570 0.2501
vn 0.9239 0.0000 0.3827
vn 0.6037 -0.7570 0.2501
vn 0.7501 -0.6563 0.0818
vn -0.7925 -0.2727 -0.5455
vn -0.6575 0.6679 0.3488
vn -0.2216 0.9708 0.0918
vn 0.6037 0.7570 -0.2501
vn 0.9239 0.0000 -0.3827
vn 0.6037 -0.7570 -0.2501
vn 0.7501 -0.6563 -0.0818
vn -0.7925 -0.2727 0.5455
vn -0.3517 0.6242 0.6977
vn -0.0918 0.9708 0.2216
vn 0.2501 0.7570 -0.6037
vn 0.3827 0.0000 -0.9239
vn 0.2501 -0.7570 -0.6037
vn 0.0754 -0.6880 -0.7218
vn -0.5399 -0.1931 0.8193
vn 0.3517 0.6242 0.6977
vn 0.0918 0.9708 0.2216
vn -0.2501 0.7570 -0.6037
vn -0.3827 0.0000 -0.9239
vn -0.2501 -0.7570 -0.6037
vn -0.0754 -0.6880 -0.7218
vn 0.5399 -0.1931 0.8193
vn 0.6575 0.6679 0.3488
vn 0.2216 0.9708 0.0918
vn -0.6037 0.7570 -0.2501
vn -0.9239 0.0000 -0.3827
vn -0.6037 -0.7570 -0.2501
vn -0.7501 -0.6563 -0.0818
vn 0.7925 -0.2727 0.5455
usemtl Material.001
s off
f 1/1/1 8/2/1 9/3/1 2/4/1
f 2/4/2 9/3/2 10/5/2 3/6/2
f 3/6/3 10/5/3 11/7/3 4/8/3
f 4/9/4 11/10/4 12/11/4 5/12/4
f 5/12/5 12/11/5 13/13/5 6/14/5
f 6/14/6 13/13/6 14/15/6 7/16/6
f 7/16/7 14/15/7 8/2/7 1/1/7
f 8/2/8 15/17/8 16/18/8 9/3/8
f 9/3/9 16/18/9 17/19/9 10/5/9
f 10/5/10 17/19/10 18/20/10 11/7/10
f 11/10/11 18/21/11 19/22/11 12/11/11
f 12/11/12 19/22/12 20/23/12 13/13/12
f 13/13/13 20/23/13 21/24/13 14/15/13
f 14/15/14 21/24/14 15/17/14 8/2/14
f 15/17/15 22/25/15 23/26/15 16/18/15
f 16/18/16 23/26/16 24/27/16 17/19/16
f 17/19/17 24/27/17 25/28/17 18/20/17
f 18/21/18 25/29/18 26/30/18 19/22/18
f 19/22/19 26/30/19 27/31/19 20/23/19
f 20/23/20 27/31/20 28/32/20 21/24/20
f 21/24/21 28/32/21 22/25/21 15/17/21
f 22/25/22 29/33/22 30/34/22 23/26/22
f 23/26/23 30/34/23 31/35/23 24/27/23
f 24/27/24 31/35/24 32/36/24 25/28/24
f 25/29/25 32/37/25 33/38/25 26/30/25
f 26/30/26 33/38/26 34/39/26 27/31/26
f 27/31/27 34/39/27 35/40/27 28/32/27
f 28/32/28 35/40/28 29/33/28 22/25/28
f 29/41/29 36/42/29 37/43/29 30/44/29
f 30/44/30 37/43/30 38/45/30 31/46/30
f 31/46/31 38/45/31 39/47/31 32/48/31
f 32/49/32 39/50/32 40/51/32 33/52/32
f 33/52/33 40/51/33 41/53/33 34/54/33
f 34/54/34 41/53/34 42/55/34 35/56/34
f 35/56/35 42/55/35 36/42/35 29/41/35
f 36/42/36 43/57/36 44/58/36 37/43/36
f 37/43/37 44/58/37 45/59/37 38/45/37
f 38/45/38 45/59/38 46/60/38 39/47/38
f 39/50/39 46/61/39 47/62/39 40/51/39
f 40/51/40 47/62/40 48/63/40 41/53/40
f 41/53/41 48/63/41 49/64/41 42/55/41
f 42/55/42 49/64/42 43/57/42 36/42/42
f 43/57/43 50/65/43 51/66/43 44/58/43
f 44/58/44 51/66/44 52/67/44 45/59/44
f 45/59/45 52/67/45 53/68/45 46/60/45
f 46/61/46 53/69/46 54/70/46 47/62/46
f 47/62/47 54/70/47 55/71/47 48/63/47
f 48/63/48 55/71/48 56/72/48 49/64/48
f 49/64/49 56/72/49 50/65/49 43/57/49
f 50/65/50 1/1/50 2/4/50 51/66/50
f 51/66/51 2/4/51 3/6/51 52/67/51
f 52/67/52 3/6/52 4/8/52 53/68/52
f 53/69/53 4/9/53 5/12/53 54/70/53
f 54/70/54 5/12/54 6/14/54 55/71/54
f 55/71/55 6/14/55 7/16/55 56/72/55
f 56/72/56 7/16/56 1/1/56 50/65/56
