# Blender v2.92.0 OBJ File: ''
# www.blender.org
mtllib clearing_ritual_main_block_top.mtl
o Torus.005
v 1.477653 -0.032021 0.000000
v 1.273446 0.249045 0.000000
v 0.943033 0.141687 0.000000
v 0.943033 -0.205730 0.000000
v 1.273446 -0.313087 0.000000
v 0.000000 -0.032021 -1.477653
v 0.000000 0.249045 -1.273446
v 0.000000 0.141687 -0.943033
v 0.000000 -0.205730 -0.943033
v 0.000000 -0.313087 -1.273446
v -1.477653 -0.032021 -0.000000
v -1.273446 0.249045 -0.000000
v -0.943033 0.141687 -0.000000
v -0.943033 -0.205730 -0.000000
v -1.273446 -0.313087 -0.000000
v 0.000000 -0.032021 1.477653
v 0.000000 0.249045 1.273446
v 0.000000 0.141687 0.943033
v 0.000000 -0.205730 0.943033
v 0.000000 -0.313087 1.273446
vt 0.500000 0.600000
vt 0.750000 0.600000
vt 0.750000 0.800000
vt 0.500000 0.800000
vt 0.750000 1.000000
vt 0.500000 1.000000
vt 0.500000 0.000000
vt 0.750000 0.000000
vt 0.750000 0.200000
vt 0.500000 0.200000
vt 0.750000 0.400000
vt 0.500000 0.400000
vt 1.000000 0.600000
vt 1.000000 0.800000
vt 1.000000 1.000000
vt 1.000000 0.000000
vt 1.000000 0.200000
vt 1.000000 0.400000
vt 0.000000 0.600000
vt 0.250000 0.600000
vt 0.250000 0.800000
vt 0.000000 0.800000
vt 0.250000 1.000000
vt 0.000000 1.000000
vt 0.000000 0.000000
vt 0.250000 0.000000
vt 0.250000 0.200000
vt 0.000000 0.200000
vt 0.250000 0.400000
vt 0.000000 0.400000
vn 0.6290 0.4570 -0.6290
vn -0.2952 0.9087 0.2952
vn -0.7071 0.0000 0.7071
vn -0.2952 -0.9087 0.2952
vn 0.6290 -0.4570 -0.6290
vn -0.6290 0.4570 -0.6290
vn 0.2952 0.9087 0.2952
vn 0.7071 0.0000 0.7071
vn 0.2952 -0.9087 0.2952
vn -0.6290 -0.4570 -0.6290
vn -0.6290 0.4570 0.6290
vn 0.2952 0.9087 -0.2952
vn 0.7071 0.0000 -0.7071
vn 0.2952 -0.9087 -0.2952
vn -0.6290 -0.4570 0.6290
vn 0.6290 0.4570 0.6290
vn -0.2952 0.9087 -0.2952
vn -0.7071 0.0000 -0.7071
vn -0.2952 -0.9087 -0.2952
vn 0.6290 -0.4570 0.6290
usemtl Material.001
s off
f 1/1/1 6/2/1 7/3/1 2/4/1
f 2/4/2 7/3/2 8/5/2 3/6/2
f 3/7/3 8/8/3 9/9/3 4/10/3
f 4/10/4 9/9/4 10/11/4 5/12/4
f 5/12/5 10/11/5 6/2/5 1/1/5
f 6/2/6 11/13/6 12/14/6 7/3/6
f 7/3/7 12/14/7 13/15/7 8/5/7
f 8/8/8 13/16/8 14/17/8 9/9/8
f 9/9/9 14/17/9 15/18/9 10/11/9
f 10/11/10 15/18/10 11/13/10 6/2/10
f 11/19/11 16/20/11 17/21/11 12/22/11
f 12/22/12 17/21/12 18/23/12 13/24/12
f 13/25/13 18/26/13 19/27/13 14/28/13
f 14/28/14 19/27/14 20/29/14 15/30/14
f 15/30/15 20/29/15 16/20/15 11/19/15
f 16/20/16 1/1/16 2/4/16 17/21/16
f 17/21/17 2/4/17 3/6/17 18/23/17
f 18/26/18 3/7/18 4/10/18 19/27/18
f 19/27/19 4/10/19 5/12/19 20/29/19
f 20/29/20 5/12/20 1/1/20 16/20/20
