# Blender v2.92.0 OBJ File: ''
# www.blender.org
mtllib clearing_ritual_crystal.mtl
o Cylinder
v 0.000000 -2.132567 0.000000
v 0.000000 2.217319 0.000000
v 0.072240 -1.052715 -0.279920
v 0.161997 1.111644 -0.443071
v 0.357237 -1.148353 0.064227
v 0.521619 0.958042 -0.011245
v 0.296549 -1.002348 0.324104
v 0.339118 0.991877 0.386378
v -0.072379 -0.961798 0.197656
v -0.254174 1.035635 0.371776
v -0.272844 -1.000186 -0.112942
v -0.417717 1.074937 -0.183402
vt 0.750000 0.250000
vt 0.750000 0.490000
vt 0.978254 0.324164
vt 0.250000 0.250000
vt 0.478254 0.324164
vt 0.250000 0.490000
vt 1.000000 0.500000
vt 1.000000 1.000000
vt 0.800000 1.000000
vt 0.800000 0.500000
vt 0.891068 0.055836
vt 0.391068 0.055836
vt 0.600000 1.000000
vt 0.600000 0.500000
vt 0.608932 0.055836
vt 0.108932 0.055836
vt 0.400000 1.000000
vt 0.400000 0.500000
vt 0.521746 0.324164
vt 0.021746 0.324164
vt 0.200000 1.000000
vt 0.200000 0.500000
vt 0.000000 1.000000
vt 0.000000 0.500000
vn 0.7208 -0.2187 -0.6577
vn 0.7800 0.3279 -0.5330
vn 0.7537 -0.0813 -0.6522
vn 0.8574 -0.3366 0.3893
vn 0.8612 0.3535 0.3652
vn 0.9328 -0.0459 0.3576
vn -0.3365 -0.1770 0.9249
vn -0.0013 0.3004 0.9538
vn -0.1502 -0.0637 0.9866
vn -0.8233 -0.1436 0.5491
vn -0.9131 0.2874 0.2893
vn -0.9186 -0.0835 0.3861
vn -0.4511 -0.1955 -0.8708
vn -0.4066 0.2879 -0.8671
vn -0.4190 -0.0554 -0.9063
usemtl Material.001
s off
f 1/1/1 3/2/1 5/3/1
f 2/4/2 6/5/2 4/6/2
f 3/7/3 4/8/3 6/9/3 5/10/3
f 1/1/4 5/3/4 7/11/4
f 2/4/5 8/12/5 6/5/5
f 5/10/6 6/9/6 8/13/6 7/14/6
f 1/1/7 7/11/7 9/15/7
f 2/4/8 10/16/8 8/12/8
f 7/14/9 8/13/9 10/17/9 9/18/9
f 1/1/10 9/15/10 11/19/10
f 2/4/11 12/20/11 10/16/11
f 9/18/12 10/17/12 12/21/12 11/22/12
f 1/1/13 11/19/13 3/2/13
f 2/4/14 4/6/14 12/20/14
f 11/22/15 12/21/15 4/23/15 3/24/15
